<mxfile host="app.diagrams.net" modified="2024-02-04T17:59:13.209Z" agent="Mozilla/5.0 (Windows NT 10.0; Win64; x64) AppleWebKit/537.36 (KHTML, like Gecko) Chrome/121.0.0.0 Safari/537.36" etag="c7Zfi9oCYjk2fAlIO6HP" version="23.1.1" type="github">
  <diagram id="C5RBs43oDa-KdzZeNtuy" name="Page-1">
    <mxGraphModel dx="1434" dy="1959" grid="1" gridSize="10" guides="1" tooltips="1" connect="1" arrows="1" fold="1" page="1" pageScale="1" pageWidth="827" pageHeight="1169" math="0" shadow="0">
      <root>
        <mxCell id="WIyWlLk6GJQsqaUBKTNV-0" />
        <mxCell id="WIyWlLk6GJQsqaUBKTNV-1" parent="WIyWlLk6GJQsqaUBKTNV-0" />
        <mxCell id="fyGWqsf3e-iPE0sLGV0f-0" value="SchedulingService" style="image;aspect=fixed;html=1;points=[];align=center;fontSize=12;image=img/lib/azure2/app_services/App_Services.svg;" vertex="1" parent="WIyWlLk6GJQsqaUBKTNV-1">
          <mxGeometry x="430" y="-127" width="44" height="44" as="geometry" />
        </mxCell>
        <mxCell id="fyGWqsf3e-iPE0sLGV0f-3" style="edgeStyle=orthogonalEdgeStyle;rounded=0;orthogonalLoop=1;jettySize=auto;html=1;" edge="1" parent="WIyWlLk6GJQsqaUBKTNV-1" source="fyGWqsf3e-iPE0sLGV0f-1" target="fyGWqsf3e-iPE0sLGV0f-0">
          <mxGeometry relative="1" as="geometry" />
        </mxCell>
        <mxCell id="fyGWqsf3e-iPE0sLGV0f-21" value="consume" style="edgeLabel;html=1;align=center;verticalAlign=middle;resizable=0;points=[];fontSize=12;fontFamily=Helvetica;fontColor=default;" vertex="1" connectable="0" parent="fyGWqsf3e-iPE0sLGV0f-3">
          <mxGeometry x="-0.0123" relative="1" as="geometry">
            <mxPoint as="offset" />
          </mxGeometry>
        </mxCell>
        <mxCell id="fyGWqsf3e-iPE0sLGV0f-1" value="scheduling-topic-tasks" style="image;sketch=0;aspect=fixed;html=1;points=[];align=center;fontSize=12;image=img/lib/mscae/Event_Hubs.svg;" vertex="1" parent="WIyWlLk6GJQsqaUBKTNV-1">
          <mxGeometry x="220" y="-130" width="48" height="50" as="geometry" />
        </mxCell>
        <mxCell id="fyGWqsf3e-iPE0sLGV0f-2" value="" style="verticalLabelPosition=bottom;html=1;verticalAlign=top;align=center;strokeColor=none;fillColor=#00BEF2;shape=mxgraph.azure.sql_database;" vertex="1" parent="WIyWlLk6GJQsqaUBKTNV-1">
          <mxGeometry x="700" y="-130" width="37.5" height="50" as="geometry" />
        </mxCell>
        <mxCell id="fyGWqsf3e-iPE0sLGV0f-4" style="edgeStyle=orthogonalEdgeStyle;rounded=0;orthogonalLoop=1;jettySize=auto;html=1;entryX=0;entryY=0.5;entryDx=0;entryDy=0;entryPerimeter=0;" edge="1" parent="WIyWlLk6GJQsqaUBKTNV-1" source="fyGWqsf3e-iPE0sLGV0f-0" target="fyGWqsf3e-iPE0sLGV0f-2">
          <mxGeometry relative="1" as="geometry" />
        </mxCell>
        <mxCell id="fyGWqsf3e-iPE0sLGV0f-6" value="" style="rounded=1;whiteSpace=wrap;html=1;gradientColor=none;glass=0;fillColor=none;" vertex="1" parent="WIyWlLk6GJQsqaUBKTNV-1">
          <mxGeometry x="115.25" y="70" width="1064.75" height="500" as="geometry" />
        </mxCell>
        <mxCell id="fyGWqsf3e-iPE0sLGV0f-32" style="edgeStyle=orthogonalEdgeStyle;rounded=0;orthogonalLoop=1;jettySize=auto;html=1;fontFamily=Helvetica;fontSize=12;fontColor=default;" edge="1" parent="WIyWlLk6GJQsqaUBKTNV-1" source="fyGWqsf3e-iPE0sLGV0f-7" target="fyGWqsf3e-iPE0sLGV0f-31">
          <mxGeometry relative="1" as="geometry" />
        </mxCell>
        <mxCell id="fyGWqsf3e-iPE0sLGV0f-7" value="Quartz&lt;br&gt;" style="image;aspect=fixed;html=1;points=[];align=center;fontSize=12;image=img/lib/azure2/general/Scheduler.svg;" vertex="1" parent="WIyWlLk6GJQsqaUBKTNV-1">
          <mxGeometry x="190" y="280" width="48" height="48" as="geometry" />
        </mxCell>
        <mxCell id="fyGWqsf3e-iPE0sLGV0f-8" value="" style="verticalLabelPosition=bottom;html=1;verticalAlign=top;align=center;strokeColor=none;fillColor=#00BEF2;shape=mxgraph.azure.sql_database;" vertex="1" parent="WIyWlLk6GJQsqaUBKTNV-1">
          <mxGeometry x="920" y="279" width="37.5" height="50" as="geometry" />
        </mxCell>
        <mxCell id="fyGWqsf3e-iPE0sLGV0f-45" style="edgeStyle=orthogonalEdgeStyle;rounded=0;orthogonalLoop=1;jettySize=auto;html=1;fontFamily=Helvetica;fontSize=12;fontColor=default;" edge="1" parent="WIyWlLk6GJQsqaUBKTNV-1" source="fyGWqsf3e-iPE0sLGV0f-10" target="fyGWqsf3e-iPE0sLGV0f-44">
          <mxGeometry relative="1" as="geometry" />
        </mxCell>
        <mxCell id="fyGWqsf3e-iPE0sLGV0f-10" value="topic-received-by-contract" style="image;sketch=0;aspect=fixed;html=1;points=[];align=center;fontSize=12;image=img/lib/mscae/Event_Hubs.svg;" vertex="1" parent="WIyWlLk6GJQsqaUBKTNV-1">
          <mxGeometry x="917.63" y="380" width="42.24" height="44" as="geometry" />
        </mxCell>
        <mxCell id="fyGWqsf3e-iPE0sLGV0f-13" value="Consumer" style="verticalLabelPosition=bottom;html=1;verticalAlign=top;align=center;strokeColor=none;fillColor=#00BEF2;shape=mxgraph.azure.worker_role;rounded=1;glass=0;fontFamily=Helvetica;fontSize=12;fontColor=default;" vertex="1" parent="WIyWlLk6GJQsqaUBKTNV-1">
          <mxGeometry x="380" y="475" width="50" height="40" as="geometry" />
        </mxCell>
        <mxCell id="fyGWqsf3e-iPE0sLGV0f-14" value="" style="verticalLabelPosition=bottom;html=1;verticalAlign=top;align=center;strokeColor=none;fillColor=#00BEF2;shape=mxgraph.azure.sql_database;" vertex="1" parent="WIyWlLk6GJQsqaUBKTNV-1">
          <mxGeometry x="661.5" y="470" width="37.5" height="50" as="geometry" />
        </mxCell>
        <mxCell id="fyGWqsf3e-iPE0sLGV0f-17" style="edgeStyle=orthogonalEdgeStyle;rounded=0;orthogonalLoop=1;jettySize=auto;html=1;entryX=0;entryY=0.5;entryDx=0;entryDy=0;entryPerimeter=0;fontFamily=Helvetica;fontSize=12;fontColor=default;" edge="1" parent="WIyWlLk6GJQsqaUBKTNV-1" source="fyGWqsf3e-iPE0sLGV0f-13" target="fyGWqsf3e-iPE0sLGV0f-14">
          <mxGeometry relative="1" as="geometry" />
        </mxCell>
        <mxCell id="fyGWqsf3e-iPE0sLGV0f-18" value="save" style="edgeLabel;html=1;align=center;verticalAlign=middle;resizable=0;points=[];fontSize=12;fontFamily=Helvetica;fontColor=default;" vertex="1" connectable="0" parent="fyGWqsf3e-iPE0sLGV0f-17">
          <mxGeometry x="-0.0324" y="-4" relative="1" as="geometry">
            <mxPoint y="-4" as="offset" />
          </mxGeometry>
        </mxCell>
        <mxCell id="fyGWqsf3e-iPE0sLGV0f-23" value="scheduling-topic-tasks" style="image;sketch=0;aspect=fixed;html=1;points=[];align=center;fontSize=12;image=img/lib/mscae/Event_Hubs.svg;" vertex="1" parent="WIyWlLk6GJQsqaUBKTNV-1">
          <mxGeometry x="190" y="470" width="38.4" height="40" as="geometry" />
        </mxCell>
        <mxCell id="fyGWqsf3e-iPE0sLGV0f-25" style="edgeStyle=orthogonalEdgeStyle;rounded=0;orthogonalLoop=1;jettySize=auto;html=1;entryX=0;entryY=0.5;entryDx=0;entryDy=0;entryPerimeter=0;fontFamily=Helvetica;fontSize=12;fontColor=default;" edge="1" parent="WIyWlLk6GJQsqaUBKTNV-1" source="fyGWqsf3e-iPE0sLGV0f-23" target="fyGWqsf3e-iPE0sLGV0f-13">
          <mxGeometry relative="1" as="geometry">
            <Array as="points">
              <mxPoint x="270" y="495" />
              <mxPoint x="270" y="495" />
            </Array>
          </mxGeometry>
        </mxCell>
        <mxCell id="fyGWqsf3e-iPE0sLGV0f-26" value="consume" style="edgeLabel;html=1;align=center;verticalAlign=middle;resizable=0;points=[];fontSize=12;fontFamily=Helvetica;fontColor=default;" vertex="1" connectable="0" parent="fyGWqsf3e-iPE0sLGV0f-25">
          <mxGeometry x="-0.1873" y="-2" relative="1" as="geometry">
            <mxPoint as="offset" />
          </mxGeometry>
        </mxCell>
        <mxCell id="fyGWqsf3e-iPE0sLGV0f-27" value="topic-received-by-contract" style="image;sketch=0;aspect=fixed;html=1;points=[];align=center;fontSize=12;image=img/lib/mscae/Event_Hubs.svg;" vertex="1" parent="WIyWlLk6GJQsqaUBKTNV-1">
          <mxGeometry x="697.63" y="-60" width="42.24" height="44" as="geometry" />
        </mxCell>
        <mxCell id="fyGWqsf3e-iPE0sLGV0f-28" style="edgeStyle=orthogonalEdgeStyle;rounded=0;orthogonalLoop=1;jettySize=auto;html=1;entryX=-0.015;entryY=0.5;entryDx=0;entryDy=0;entryPerimeter=0;fontFamily=Helvetica;fontSize=12;fontColor=default;" edge="1" parent="WIyWlLk6GJQsqaUBKTNV-1" source="fyGWqsf3e-iPE0sLGV0f-0" target="fyGWqsf3e-iPE0sLGV0f-27">
          <mxGeometry relative="1" as="geometry" />
        </mxCell>
        <mxCell id="fyGWqsf3e-iPE0sLGV0f-29" value="produce" style="edgeLabel;html=1;align=center;verticalAlign=middle;resizable=0;points=[];fontSize=12;fontFamily=Helvetica;fontColor=default;" vertex="1" connectable="0" parent="fyGWqsf3e-iPE0sLGV0f-28">
          <mxGeometry x="0.6207" y="3" relative="1" as="geometry">
            <mxPoint as="offset" />
          </mxGeometry>
        </mxCell>
        <mxCell id="fyGWqsf3e-iPE0sLGV0f-31" value="Flag is true?" style="rhombus;whiteSpace=wrap;html=1;rounded=1;glass=0;strokeColor=default;align=center;verticalAlign=middle;fontFamily=Helvetica;fontSize=12;fontColor=default;fillColor=none;gradientColor=none;" vertex="1" parent="WIyWlLk6GJQsqaUBKTNV-1">
          <mxGeometry x="370" y="264" width="80" height="80" as="geometry" />
        </mxCell>
        <mxCell id="fyGWqsf3e-iPE0sLGV0f-33" style="edgeStyle=orthogonalEdgeStyle;rounded=0;orthogonalLoop=1;jettySize=auto;html=1;entryX=0;entryY=0.5;entryDx=0;entryDy=0;entryPerimeter=0;fontFamily=Helvetica;fontSize=12;fontColor=default;" edge="1" parent="WIyWlLk6GJQsqaUBKTNV-1" source="fyGWqsf3e-iPE0sLGV0f-31" target="fyGWqsf3e-iPE0sLGV0f-8">
          <mxGeometry relative="1" as="geometry" />
        </mxCell>
        <mxCell id="fyGWqsf3e-iPE0sLGV0f-49" value="get&amp;nbsp; items" style="edgeLabel;html=1;align=center;verticalAlign=middle;resizable=0;points=[];fontSize=12;fontFamily=Helvetica;fontColor=default;" vertex="1" connectable="0" parent="fyGWqsf3e-iPE0sLGV0f-33">
          <mxGeometry x="0.4638" y="-3" relative="1" as="geometry">
            <mxPoint x="4" y="-3" as="offset" />
          </mxGeometry>
        </mxCell>
        <mxCell id="fyGWqsf3e-iPE0sLGV0f-34" style="edgeStyle=orthogonalEdgeStyle;rounded=0;orthogonalLoop=1;jettySize=auto;html=1;entryX=-0.024;entryY=0.636;entryDx=0;entryDy=0;entryPerimeter=0;fontFamily=Helvetica;fontSize=12;fontColor=default;" edge="1" parent="WIyWlLk6GJQsqaUBKTNV-1" source="fyGWqsf3e-iPE0sLGV0f-31" target="fyGWqsf3e-iPE0sLGV0f-10">
          <mxGeometry relative="1" as="geometry" />
        </mxCell>
        <mxCell id="fyGWqsf3e-iPE0sLGV0f-35" value="produce item" style="edgeLabel;html=1;align=center;verticalAlign=middle;resizable=0;points=[];fontSize=12;fontFamily=Helvetica;fontColor=default;" vertex="1" connectable="0" parent="fyGWqsf3e-iPE0sLGV0f-34">
          <mxGeometry x="0.5782" y="-3" relative="1" as="geometry">
            <mxPoint as="offset" />
          </mxGeometry>
        </mxCell>
        <mxCell id="fyGWqsf3e-iPE0sLGV0f-37" value="true" style="edgeLabel;html=1;align=center;verticalAlign=middle;resizable=0;points=[];fontSize=12;fontFamily=Helvetica;fontColor=default;" vertex="1" connectable="0" parent="fyGWqsf3e-iPE0sLGV0f-34">
          <mxGeometry x="-0.9107" relative="1" as="geometry">
            <mxPoint as="offset" />
          </mxGeometry>
        </mxCell>
        <mxCell id="fyGWqsf3e-iPE0sLGV0f-38" value="Log" style="html=1;whiteSpace=wrap;strokeColor=none;fillColor=#0079D6;labelPosition=center;verticalLabelPosition=middle;verticalAlign=top;align=center;fontSize=12;outlineConnect=0;spacingTop=-6;fontColor=#FFFFFF;sketch=0;shape=mxgraph.sitemap.log;rounded=1;glass=0;fontFamily=Helvetica;" vertex="1" parent="WIyWlLk6GJQsqaUBKTNV-1">
          <mxGeometry x="370" y="110" width="80" height="50" as="geometry" />
        </mxCell>
        <mxCell id="fyGWqsf3e-iPE0sLGV0f-40" style="edgeStyle=orthogonalEdgeStyle;rounded=0;orthogonalLoop=1;jettySize=auto;html=1;entryX=0.5;entryY=1;entryDx=0;entryDy=0;entryPerimeter=0;fontFamily=Helvetica;fontSize=12;fontColor=default;" edge="1" parent="WIyWlLk6GJQsqaUBKTNV-1" source="fyGWqsf3e-iPE0sLGV0f-31" target="fyGWqsf3e-iPE0sLGV0f-38">
          <mxGeometry relative="1" as="geometry" />
        </mxCell>
        <mxCell id="fyGWqsf3e-iPE0sLGV0f-41" value="false" style="edgeLabel;html=1;align=center;verticalAlign=middle;resizable=0;points=[];fontSize=12;fontFamily=Helvetica;fontColor=default;" vertex="1" connectable="0" parent="fyGWqsf3e-iPE0sLGV0f-40">
          <mxGeometry x="-0.5" y="1" relative="1" as="geometry">
            <mxPoint as="offset" />
          </mxGeometry>
        </mxCell>
        <mxCell id="fyGWqsf3e-iPE0sLGV0f-42" value="log the information and do not run the scheduling service" style="text;html=1;strokeColor=none;fillColor=none;align=left;verticalAlign=middle;whiteSpace=wrap;rounded=0;fontSize=12;fontFamily=Helvetica;fontColor=default;" vertex="1" parent="WIyWlLk6GJQsqaUBKTNV-1">
          <mxGeometry x="460" y="110" width="110" height="50" as="geometry" />
        </mxCell>
        <mxCell id="fyGWqsf3e-iPE0sLGV0f-43" value="SchedulingService" style="text;html=1;strokeColor=none;fillColor=none;align=center;verticalAlign=middle;whiteSpace=wrap;rounded=0;fontSize=12;fontFamily=Helvetica;fontColor=default;fontStyle=1" vertex="1" parent="WIyWlLk6GJQsqaUBKTNV-1">
          <mxGeometry x="1040" y="80" width="60" height="30" as="geometry" />
        </mxCell>
        <mxCell id="fyGWqsf3e-iPE0sLGV0f-44" value="Produce is success?" style="rhombus;whiteSpace=wrap;html=1;rounded=1;glass=0;strokeColor=default;align=center;verticalAlign=middle;fontFamily=Helvetica;fontSize=12;fontColor=default;fillColor=none;gradientColor=none;" vertex="1" parent="WIyWlLk6GJQsqaUBKTNV-1">
          <mxGeometry x="1050" y="362" width="80" height="80" as="geometry" />
        </mxCell>
        <mxCell id="fyGWqsf3e-iPE0sLGV0f-46" style="edgeStyle=orthogonalEdgeStyle;rounded=0;orthogonalLoop=1;jettySize=auto;html=1;entryX=1;entryY=0.5;entryDx=0;entryDy=0;entryPerimeter=0;fontFamily=Helvetica;fontSize=12;fontColor=default;" edge="1" parent="WIyWlLk6GJQsqaUBKTNV-1" source="fyGWqsf3e-iPE0sLGV0f-44" target="fyGWqsf3e-iPE0sLGV0f-8">
          <mxGeometry relative="1" as="geometry">
            <Array as="points">
              <mxPoint x="1090" y="304" />
            </Array>
          </mxGeometry>
        </mxCell>
        <mxCell id="fyGWqsf3e-iPE0sLGV0f-47" value="true" style="edgeLabel;html=1;align=center;verticalAlign=middle;resizable=0;points=[];fontSize=12;fontFamily=Helvetica;fontColor=default;" vertex="1" connectable="0" parent="fyGWqsf3e-iPE0sLGV0f-46">
          <mxGeometry x="-0.8635" y="1" relative="1" as="geometry">
            <mxPoint as="offset" />
          </mxGeometry>
        </mxCell>
        <mxCell id="fyGWqsf3e-iPE0sLGV0f-48" value="remove item" style="edgeLabel;html=1;align=center;verticalAlign=middle;resizable=0;points=[];fontSize=12;fontFamily=Helvetica;fontColor=default;" vertex="1" connectable="0" parent="fyGWqsf3e-iPE0sLGV0f-46">
          <mxGeometry x="0.3333" y="-2" relative="1" as="geometry">
            <mxPoint as="offset" />
          </mxGeometry>
        </mxCell>
      </root>
    </mxGraphModel>
  </diagram>
</mxfile>
